<svg width="48" height="48" viewBox="0 0 48 48" fill="none" xmlns="http://www.w3.org/2000/svg">
<path fill-rule="evenodd" clip-rule="evenodd" d="M23.9999 39.7679C15.2943 39.7679 8.23555 32.7099 8.23555 24.0035C8.23555 15.2971 15.2939 8.23989 23.9999 8.23989C24.5365 8.23989 24.972 8.67521 24.972 9.21193V38.7959C24.972 39.3325 24.5365 39.768 23.9999 39.768V39.7679ZM14.2275 33.7755C16.5143 36.0622 19.5987 37.5511 23.0275 37.7891V10.2175C11.2799 11.034 5.84635 25.3947 14.2275 33.7755ZM37.5755 10.4279C30.0779 2.93029 17.9215 2.93029 10.4243 10.4279C2.92675 17.9255 2.92675 30.0819 10.4243 37.5795C17.9219 45.0771 30.0783 45.0771 37.5755 37.5795C45.0727 30.0819 45.0727 17.9251 37.5755 10.4279Z" fill="white"/>
</svg>
