<svg width="49" height="48" viewBox="0 0 49 48" fill="none" xmlns="http://www.w3.org/2000/svg">
<path fill-rule="evenodd" clip-rule="evenodd" d="M38.0682 26.5C43.4529 26.5 47.8182 22.1347 47.8182 16.75C47.8182 11.3653 43.4529 7 38.0682 7C32.6835 7 28.3182 11.3653 28.3182 16.75C28.3182 22.1347 32.6835 26.5 38.0682 26.5ZM37.0932 11.875C37.0932 11.3365 37.5297 10.9 38.0682 10.9C38.6067 10.9 39.0432 11.3365 39.0432 11.875V15.775H42.9432C43.4817 15.775 43.9182 16.2115 43.9182 16.75C43.9182 17.2885 43.4817 17.725 42.9432 17.725H39.0432V21.625C39.0432 22.1635 38.6067 22.6 38.0682 22.6C37.5297 22.6 37.0932 22.1635 37.0932 21.625V17.725H33.1932C32.6547 17.725 32.2182 17.2885 32.2182 16.75C32.2182 16.2115 32.6547 15.775 33.1932 15.775H37.0932V11.875Z" fill="white"/>
<path d="M30.1365 38.4904L27.9657 38.1916L17.7345 12H14.3374L4.28721 38.1916L2.13648 38.4904V41H10.5385V38.4904L8.32746 38.112L10.2571 32.774H21.9755L23.9654 38.112L21.7544 38.4904V41H30.1361L30.1365 38.4904ZM20.7497 29.4877H11.4634L16.006 17.0393H16.1266L20.7497 29.4877Z" fill="white"/>
</svg>
