<svg width="49" height="48" viewBox="0 0 49 48" fill="none" xmlns="http://www.w3.org/2000/svg">
<path fill-rule="evenodd" clip-rule="evenodd" d="M37.3864 26.5C42.7711 26.5 47.1364 22.1347 47.1364 16.75C47.1364 11.3653 42.7711 7 37.3864 7C32.0016 7 27.6364 11.3653 27.6364 16.75C27.6364 22.1347 32.0016 26.5 37.3864 26.5ZM36.5965 15.775C36.6687 15.775 37.3864 15.775 37.3864 15.775C37.3864 15.775 38.2116 15.775 38.3614 15.775H42.2614C42.7998 15.775 43.2364 16.2115 43.2364 16.75C43.2364 17.2885 42.7998 17.725 42.2614 17.725H38.3614H37.8801C37.6615 17.725 37.9249 17.725 37.3864 17.725C36.8479 17.725 37.0337 17.725 36.7234 17.725H36.4114H32.5114C31.9729 17.725 31.5364 17.2885 31.5364 16.75C31.5364 16.2115 31.9729 15.775 32.5114 15.775H36.4114H36.5965Z" fill="white"/>
<path d="M30.5 38.4904L28.3292 38.1916L18.098 12H14.7009L4.65074 38.1916L2.5 38.4904V41H10.902V38.4904L8.69099 38.112L10.6206 32.774H22.339L24.3289 38.112L22.1179 38.4904V41H30.4996L30.5 38.4904ZM21.1132 29.4877H11.8269L16.3695 17.0393H16.4901L21.1132 29.4877Z" fill="white"/>
</svg>
