<svg width="41" height="41" viewBox="0 0 41 41" fill="none" xmlns="http://www.w3.org/2000/svg">
<path d="M20.5 32.9602C22.6077 30.9615 31.7815 21.7877 31.7815 13.844C31.7815 7.62361 26.7204 2.5625 20.5 2.5625C14.2796 2.5625 9.21851 7.62361 9.21851 13.844C9.21851 21.7942 18.3923 30.9615 20.5 32.9602ZM20.5 8.59736C23.3892 8.59736 25.7466 10.9484 25.7466 13.844C25.7466 16.7396 23.3891 19.0841 20.5 19.0841C17.6109 19.0841 15.2534 16.7331 15.2534 13.844C15.2534 10.9549 17.6109 8.59736 20.5 8.59736Z" fill="#CD061E"/>
<path d="M6.74586 33.8354C6.74586 36.0135 12.396 38.4352 20.5 38.4352C28.604 38.4352 34.2541 36.0137 34.2541 33.8354C34.2541 32.2915 31.2496 30.3504 25.4904 29.5625C23.1521 32.3044 21.1341 34.1364 20.9291 34.3096C20.8074 34.4185 20.6537 34.4762 20.4999 34.4762C20.3462 34.4762 20.1924 34.4185 20.0707 34.3096C19.8657 34.1366 17.8478 32.3044 15.5095 29.5625C9.75034 30.3505 6.74573 32.2916 6.74573 33.8354H6.74586Z" fill="#CD061E"/>
</svg>
