<svg width="25" height="22" viewBox="0 0 25 22" fill="none" xmlns="http://www.w3.org/2000/svg">
<path d="M8.32143 13.2366L0.294639 20.5273C0.107141 20.1614 0 19.7509 0 19.3226V8.72093C0 8.46213 0.0357138 8.20334 0.11607 7.96239L8.32143 13.2366ZM12.9911 15.6014C12.6965 15.8067 12.3036 15.8067 12.009 15.6014L9.8751 14.236L1.5895 21.7591C1.91985 21.9197 2.29485 22 2.67877 22H22.3213C22.7053 22 23.0803 21.9197 23.4106 21.7591L15.125 14.236L12.9911 15.6014ZM12.5001 13.7988L14.9734 12.2103L23.8392 6.51659C23.8392 6.51659 23.7678 6.46305 23.7231 6.43628L13.9018 0.394885C13.0358 -0.131628 11.9644 -0.131628 11.0983 0.394885L1.27701 6.43628C1.27701 6.43628 1.19665 6.48982 1.16094 6.51659L10.0268 12.2103L12.5001 13.7988ZM24.8839 7.96227L16.6786 13.2364L24.7054 20.5272C24.8929 20.1613 25 19.7508 25 19.3225V8.72081C25 8.46201 24.9643 8.20322 24.8839 7.96227Z" fill="#CD061E"/>
</svg>
