<svg width="38" height="38" viewBox="0 0 38 38" fill="none" xmlns="http://www.w3.org/2000/svg">
<path d="M32.0625 32.0628C32.0655 33.3245 31.1659 34.4096 29.925 34.6382C26.3194 35.2928 22.6635 35.6238 19 35.6253C15.3396 35.6238 11.685 35.2958 8.08385 34.6427C6.83698 34.417 5.93299 33.329 5.93746 32.0628C5.94042 28.9145 7.19323 25.8967 9.41984 23.6702C11.6464 21.4437 14.6642 20.1907 17.8125 20.1878H20.1875C23.3358 20.1908 26.3536 21.4436 28.5801 23.6702C30.8066 25.8967 32.0596 28.9145 32.0625 32.0628ZM19 19.0003C21.2043 19.0003 23.3193 18.1245 24.8783 16.5659C26.437 15.0073 27.3126 12.892 27.3126 10.6877C27.3126 8.48325 26.4369 6.36833 24.8783 4.80938C23.3197 3.25065 21.2043 2.375 19 2.375C16.7957 2.375 14.6807 3.25077 13.1217 4.80938C11.563 6.36798 10.6873 8.48334 10.6873 10.6877C10.6903 12.8919 11.5661 15.0041 13.1247 16.5628C14.6833 18.1214 16.7955 18.9972 18.9998 19.0001L19 19.0003Z" fill="#CD061E"/>
</svg>
