<svg width="39" height="39" viewBox="0 0 39 39" fill="none" xmlns="http://www.w3.org/2000/svg">
<path d="M15.4375 19.5L8.48832 33.3983C7.94814 34.4788 8.73385 35.75 9.94182 35.75H33.3126C34.21 35.75 34.9376 35.0224 34.9376 34.125V6.5L25.1876 26L15.4375 19.5Z" fill="#CD061E"/>
<path fill-rule="evenodd" clip-rule="evenodd" d="M32.4146 3.42145C33.2173 3.82289 33.5425 4.7989 33.1412 5.60161L25.0162 21.8516C24.8079 22.2684 24.4304 22.5759 23.9799 22.6955C23.5295 22.8151 23.0493 22.7355 22.6614 22.477L14.4431 16.9981L7.14134 31.6017C6.7399 32.4044 5.76376 32.7298 4.96117 32.3284C4.15846 31.927 3.83307 30.9509 4.23438 30.1483L12.3594 13.8983C12.5678 13.4814 12.9453 13.1742 13.3957 13.0545C13.8463 12.9349 14.3264 13.0145 14.7142 13.2729L22.9328 18.7521L30.2346 4.14857C30.636 3.34585 31.6122 3.02059 32.4148 3.4219L32.4146 3.42145Z" fill="#CD061E"/>
</svg>
