<svg width="40" height="40" viewBox="0 0 40 40" fill="none" xmlns="http://www.w3.org/2000/svg">
<path d="M34.6 4.39844H5.40003C5.1348 4.39844 4.8805 4.50378 4.69286 4.69128C4.50536 4.87891 4.40002 5.13321 4.40002 5.39844V34.5984C4.40002 34.8637 4.50536 35.118 4.69286 35.3056C4.88049 35.4931 5.1348 35.5984 5.40003 35.5984H34.6C34.8653 35.5984 35.1196 35.4931 35.3072 35.3056C35.4947 35.118 35.6 34.8637 35.6 34.5984V5.39844C35.6 5.13321 35.4947 4.87891 35.3072 4.69128C35.1196 4.50378 34.8653 4.39844 34.6 4.39844ZM21 30.3984H10.6C10.3348 30.3984 10.0805 30.2931 9.89286 30.1056C9.70536 29.918 9.60002 29.6637 9.60002 29.3984V18.9984C9.60002 18.6411 9.79065 18.3111 10.1 18.1324C10.4094 17.9538 10.7907 17.9538 11.1 18.1324C11.4094 18.3111 11.6 18.6412 11.6 18.9984V28.3984H21C21.3573 28.3984 21.6874 28.5891 21.866 28.8984C22.0447 29.2078 22.0447 29.5891 21.866 29.8984C21.6874 30.2078 21.3573 30.3984 21 30.3984ZM30.4 20.9984C30.4 21.3557 30.2094 21.6858 29.9 21.8644C29.5907 22.0431 29.2094 22.0431 28.9 21.8644C28.5907 21.6858 28.4 21.3557 28.4 20.9984V11.5984H19C18.6427 11.5984 18.3127 11.4078 18.134 11.0984C17.9554 10.7891 17.9554 10.4078 18.134 10.0984C18.3127 9.78907 18.6428 9.59844 19 9.59844H29.4C29.6653 9.59844 29.9196 9.70378 30.1072 9.89128C30.2947 10.0789 30.4 10.3332 30.4 10.5984L30.4 20.9984Z" fill="#CD061E"/>
</svg>
