<?xml version="1.0" encoding="UTF-8"?>
<svg width="1200pt" height="1200pt" version="1.1" viewBox="0 0 1200 1200" xmlns="http://www.w3.org/2000/svg">
 <path d="m808.5 391.5c-10.547-10.535-24.844-16.449-39.75-16.449s-29.203 5.9141-39.75 16.449l-129 129-129-129c-10.523-10.684-24.879-16.723-39.879-16.777-14.996-0.050781-29.395 5.8906-39.992 16.5s-16.52 25.016-16.453 40.012c0.070313 15 6.1289 29.348 16.824 39.859l129 128.91-129 129c-10.695 10.512-16.754 24.859-16.824 39.859-0.066406 14.996 5.8555 29.402 16.453 40.012s24.996 16.551 39.992 16.5c15-0.054688 29.355-6.0938 39.879-16.777l129-129.09 129 129c14.254 14.008 34.875 19.402 54.164 14.164 19.289-5.2344 34.352-20.316 39.566-39.609 5.2109-19.297-0.20312-39.91-14.23-54.148l-129-128.91 129-129c10.535-10.547 16.449-24.844 16.449-39.75s-5.9141-29.203-16.449-39.75z" fill="#fff"/>
 <path d="m600 28.125c-151.67 0-297.13 60.25-404.38 167.5-107.25 107.25-167.5 252.7-167.5 404.38s60.25 297.13 167.5 404.38c107.25 107.25 252.7 167.5 404.38 167.5s297.13-60.25 404.38-167.5c107.25-107.25 167.5-252.7 167.5-404.38-0.17188-151.62-60.48-296.98-167.69-404.18-107.21-107.21-252.57-167.52-404.18-167.69zm0 1031.2c-121.83 0-238.68-48.398-324.83-134.55-86.148-86.152-134.55-203-134.55-324.83s48.398-238.68 134.55-324.83c86.152-86.148 203-134.55 324.83-134.55s238.68 48.398 324.83 134.55c86.148 86.152 134.55 203 134.55 324.83-0.14844 121.79-48.594 238.55-134.71 324.66-86.117 86.117-202.88 134.56-324.66 134.71z" fill="#fff"/>
</svg>
