<svg width="48" height="48" viewBox="0 0 48 48" fill="none" xmlns="http://www.w3.org/2000/svg">
<path fill-rule="evenodd" clip-rule="evenodd" d="M24 4.79688C34.6036 4.79688 43.2 13.3933 43.2 23.9969C43.2 34.6005 34.6036 43.1969 24 43.1969C13.3956 43.1969 4.80005 34.6013 4.80005 23.9969C4.80005 13.3933 13.3964 4.79688 24 4.79688ZM24 38.3361C24.5366 38.3361 24.9721 37.9008 24.9721 37.364V10.63C24.9721 10.0935 24.5368 9.65799 24 9.65799C20.0405 9.65799 16.4552 11.2632 13.8604 13.858C4.84965 22.8688 11.2665 38.336 24 38.336V38.3361ZM15.2352 32.7617C17.2637 34.7901 19.9924 36.1189 23.0276 36.3545V11.6397C12.5472 12.4523 7.74925 25.2753 15.2352 32.7617ZM36.2016 11.7953C29.4628 5.05647 18.5372 5.05647 11.798 11.7953C5.05925 18.5341 5.05925 29.4597 11.798 36.1989C18.5368 42.9377 29.4628 42.9377 36.2016 36.1989C42.9404 29.4597 42.9404 18.5341 36.2016 11.7953Z" fill="white"/>
</svg>
