<svg width="49" height="49" viewBox="0 0 49 49" fill="none" xmlns="http://www.w3.org/2000/svg">
<path d="M16.0218 25.7266C15.8531 25.7266 15.6937 25.8026 15.5874 25.9349C15.5874 25.9349 14.8791 26.8182 14.1676 27.9026C13.8124 28.4443 13.4541 29.037 13.177 29.613C12.901 30.188 12.6885 30.7318 12.6885 31.2828C12.6885 33.1172 14.1874 34.6162 16.0218 34.6162C17.8562 34.6162 19.3551 33.1172 19.3551 31.2828C19.3551 30.7318 19.1426 30.188 18.8656 29.613C18.5885 29.038 18.2301 28.4453 17.8749 27.9026C17.1645 26.8182 16.4562 25.9349 16.4562 25.9349C16.351 25.8036 16.1906 25.7266 16.0218 25.7266Z" fill="white"/>
<path d="M26.3698 12.3906C26.223 12.3906 26.0813 12.449 25.9771 12.5531C22.5709 15.9593 19.1636 19.3667 15.7573 22.7729C15.5407 22.9896 15.5407 23.3417 15.7573 23.5583C15.974 23.775 16.3261 23.775 16.5428 23.5583L17.1084 22.9927L26.2979 32.1811C26.5146 32.3978 26.8667 32.3978 27.0834 32.1811L34.7478 24.5167C34.9645 24.3 34.9645 23.9479 34.7478 23.7313L25.5594 14.5437L26.7635 13.3395C26.9802 13.1229 26.9802 12.7708 26.7635 12.5541C26.6594 12.45 26.5177 12.3916 26.3708 12.3916L26.3698 12.3906ZM24.773 15.3293L29.9303 20.4855L18.5854 21.5168L24.773 15.3293Z" fill="white"/>
<path fill-rule="evenodd" clip-rule="evenodd" d="M24.3333 4.83594C34.9369 4.83594 43.5333 13.4323 43.5333 24.0359C43.5333 34.6395 34.9369 43.2359 24.3333 43.2359C13.7289 43.2359 5.1333 34.6403 5.1333 24.0359C5.1333 13.4323 13.7297 4.83594 24.3333 4.83594ZM36.5349 11.8343C29.7961 5.09554 18.8705 5.09554 12.1313 11.8343C5.3925 18.5731 5.3925 29.4987 12.1313 36.2379C18.8701 42.9767 29.7961 42.9767 36.5349 36.2379C43.2737 29.4987 43.2737 18.5731 36.5349 11.8343Z" fill="white"/>
</svg>
