<?xml version="1.0" encoding="UTF-8"?>
<svg width="1200pt" height="1200pt" version="1.1" viewBox="0 0 1200 1200" xmlns="http://www.w3.org/2000/svg">
 <path d="m812.55 316.66c-59.23-44.516-132.84-70.895-212.55-70.895-195.52 0-354.24 158.72-354.24 354.24 0 195.52 158.72 354.24 354.24 354.24 186.36 0 339.27-144.22 353.2-327.04 1.9844-26-17.5-48.695-43.5-50.68s-48.695 17.5-50.68 43.5c-10.227 134.05-122.38 239.75-259.02 239.75-143.37 0-259.77-116.4-259.77-259.78 0-143.37 116.4-259.77 259.77-259.77 55.547 0 107.05 17.473 149.3 47.23h-31.219c-26.07 0-47.23 21.16-47.23 47.23 0 26.074 21.16 47.234 47.23 47.234h141.7c26.098 0 47.234-21.137 47.234-47.234v-141.7c0-26.07-21.16-47.23-47.234-47.23-26.07 0-47.23 21.16-47.23 47.23z" fill="#fff" fill-rule="evenodd"/>
</svg>
