<svg width="25" height="25" viewBox="0 0 25 25" fill="none" xmlns="http://www.w3.org/2000/svg">
<path d="M6.35732 15.1785H0.285722C0.0982171 14.3125 0 13.4196 0 12.5C0 11.5804 0.0982171 10.6875 0.285722 9.82145H6.35732C6.28589 10.6875 6.25018 11.5804 6.25018 12.5C6.25018 13.4196 6.28589 14.3125 6.35732 15.1785ZM0.830262 16.9642C2.21423 20.5894 5.25015 23.4104 9.01788 24.4999C7.83927 22.7678 6.96425 20.134 6.53566 16.9642H0.830262ZM9.01788 0.500114C5.24967 1.58939 2.21435 4.41103 0.830262 8.03576H6.5359C6.96448 4.86602 7.83951 2.23248 9.01812 0.500114H9.01788ZM8.34821 16.9642C9.0268 21.7054 10.7321 24.8037 12.3483 24.9911C12.4019 25 12.4465 25 12.5001 25C12.5537 25 12.5983 25 12.6519 24.9911C14.268 24.8036 15.9734 21.7054 16.652 16.9642H8.34821ZM12.6517 0.00892849C12.5981 0 12.5535 0 12.4999 0C12.4463 0 12.4017 0 12.3481 0.00892849C10.732 0.196427 9.02657 3.29461 8.34798 8.03576H16.6515C15.973 3.29461 14.2677 0.196308 12.6514 0.00892849H12.6517ZM8.03559 12.5C8.03559 13.4286 8.0713 14.3214 8.14273 15.1785H16.8573C16.9287 14.3214 16.9644 13.4286 16.9644 12.5C16.9644 11.5714 16.9287 10.6786 16.8573 9.82145H8.14273C8.0713 10.6786 8.03559 11.5714 8.03559 12.5ZM15.982 24.4999C19.7502 23.4106 22.7855 20.589 24.1696 16.9642H18.464C18.0354 20.134 17.1604 22.7675 15.9818 24.4999H15.982ZM24.1696 8.03576C22.7857 4.41055 19.7497 1.58963 15.982 0.500114C17.1606 2.23224 18.0356 4.86602 18.4642 8.03576H24.1696ZM24.7143 9.82145H18.6427C18.7141 10.6875 18.7498 11.5804 18.7498 12.5C18.7498 13.4196 18.7141 14.3125 18.6427 15.1785H24.7143C24.9018 14.3125 25 13.4196 25 12.5C25 11.5804 24.9018 10.6875 24.7143 9.82145Z" fill="#CD061E"/>
</svg>
